<?xml version="1.0" standalone="no"?>
<!DOCTYPE svg PUBLIC "-//W3C//DTD SVG 20010904//EN"
 "http://www.w3.org/TR/2001/REC-SVG-20010904/DTD/svg10.dtd">
<svg version="1.0" xmlns="http://www.w3.org/2000/svg"
 width="649.000000pt" height="649.000000pt" viewBox="0 0 649.000000 649.000000"
 preserveAspectRatio="xMidYMid meet">
<metadata>
Created by potrace 1.11, written by Peter Selinger 2001-2013
</metadata>
<g transform="translate(0.000000,649.000000) scale(0.100000,-0.100000)"
fill="#000000" stroke="none">
<path d="M2890 6334 c-584 -69 -1123 -295 -1590 -665 -135 -107 -372 -344
-479 -479 -374 -471 -598 -1010 -665 -1600 -21 -177 -21 -523 0 -700 81 -709
388 -1345 894 -1850 476 -477 1071 -778 1742 -881 169 -26 568 -37 743 -20
616 60 1186 291 1670 678 518 414 914 1037 1070 1683 68 283 89 494 82 820 -8
386 -65 686 -194 1020 -239 621 -647 1131 -1193 1495 -416 277 -870 442 -1370
499 -167 20 -547 20 -710 0z m1568 -669 c224 -43 403 -136 563 -295 196 -193
304 -436 316 -711 11 -252 -48 -461 -188 -664 -54 -79 -167 -194 -249 -255
-74 -56 -214 -124 -316 -156 l-84 -26 0 -313 0 -313 84 -26 c298 -93 545 -314
667 -596 68 -157 84 -242 84 -435 0 -154 -3 -179 -28 -268 -54 -197 -140 -343
-286 -488 -144 -142 -286 -223 -501 -282 -62 -17 -104 -20 -250 -21 -159 0
-184 2 -275 27 -133 36 -300 119 -400 200 -278 224 -431 589 -395 941 6 54 9
100 8 102 -2 1 -193 97 -426 213 l-424 212 -64 -60 c-145 -136 -327 -228 -539
-273 -77 -16 -313 -16 -390 0 -229 49 -410 144 -563 298 -139 141 -231 303
-284 504 -32 120 -36 337 -9 469 131 632 779 1007 1390 804 193 -64 385 -197
502 -349 l42 -54 396 201 c218 111 399 204 403 208 4 3 -2 39 -12 79 -58 219
-43 457 42 671 132 336 433 584 794 655 95 19 294 19 392 1z"/>
<path d="M4080 5524 c-142 -30 -258 -84 -378 -173 -310 -234 -442 -646 -325
-1016 27 -86 68 -175 81 -175 4 0 30 23 57 51 92 94 270 198 417 245 l57 17
-63 61 c-132 130 -186 318 -141 491 49 185 213 333 406 365 329 56 627 -244
571 -573 -19 -111 -60 -187 -146 -273 -41 -41 -71 -76 -67 -78 3 -2 31 -11 61
-21 132 -42 271 -128 385 -236 40 -38 75 -69 78 -69 8 0 44 70 64 124 60 162
79 374 49 526 -74 363 -368 660 -728 734 -95 20 -288 20 -378 0z"/>
<path d="M4180 5244 c-106 -29 -182 -92 -237 -196 -25 -47 -28 -64 -28 -148 0
-82 4 -103 26 -151 36 -77 87 -130 161 -169 53 -28 76 -35 144 -38 132 -7 237
41 310 139 153 208 50 498 -201 564 -72 18 -103 18 -175 -1z"/>
<path d="M4145 4360 c-206 -27 -415 -132 -559 -279 l-49 -50 36 -44 c76 -93
224 -195 356 -246 271 -104 574 -79 823 69 72 43 228 183 228 205 0 20 -142
150 -218 199 -121 79 -252 125 -413 146 -84 11 -119 11 -204 0z"/>
<path d="M1435 4163 c-358 -57 -645 -296 -759 -631 -56 -165 -61 -390 -12
-555 20 -68 65 -175 80 -194 1 -1 29 23 62 54 59 56 182 142 259 181 34 16 71
31 203 77 8 3 -12 29 -51 67 -199 196 -207 498 -19 699 106 114 231 165 386
156 115 -6 182 -28 270 -92 121 -87 195 -221 204 -370 9 -159 -37 -277 -153
-391 l-72 -70 84 -29 c139 -47 265 -127 390 -248 l61 -59 35 73 c88 183 113
418 67 623 -46 204 -202 430 -384 555 -69 48 -199 106 -291 131 -79 21 -289
35 -360 23z"/>
<path d="M2978 3791 c-213 -108 -390 -199 -393 -203 -3 -3 3 -42 14 -86 59
-229 41 -477 -48 -685 -12 -27 -21 -51 -21 -53 0 -2 175 -91 389 -199 l389
-194 58 91 c166 262 469 453 769 485 l70 8 0 289 0 290 -80 12 c-273 39 -514
171 -677 370 -33 41 -66 74 -72 73 -6 -1 -185 -90 -398 -198z"/>
<path d="M1443 3862 c-104 -37 -191 -127 -225 -234 -54 -171 31 -358 200 -436
48 -22 71 -27 142 -27 71 0 94 5 142 27 76 35 148 104 184 175 26 52 29 68 29
153 0 82 -4 103 -27 152 -34 73 -103 142 -176 176 -75 35 -192 41 -269 14z"/>
<path d="M1371 2975 c-196 -44 -355 -130 -485 -264 l-59 -60 74 -74 c125 -125
267 -205 446 -249 113 -28 313 -31 415 -5 177 44 346 137 461 255 l59 59 -61
65 c-112 120 -274 215 -441 258 -110 29 -315 36 -409 15z"/>
<path d="M4160 2810 c-108 -13 -190 -38 -305 -95 -193 -95 -334 -237 -426
-430 -105 -218 -123 -455 -52 -680 24 -76 68 -175 78 -175 2 0 26 21 52 47
107 104 262 196 411 244 39 12 72 25 72 28 0 4 -16 17 -35 31 -106 76 -185
243 -185 392 0 135 49 249 149 349 260 259 691 163 819 -183 68 -184 22 -381
-124 -525 l-72 -72 51 -17 c152 -50 285 -131 400 -242 90 -88 86 -90 138 43
53 135 72 249 66 400 -6 153 -27 237 -92 370 -139 282 -414 475 -730 514 -99
12 -119 12 -215 1z"/>
<path d="M4187 2520 c-101 -26 -206 -113 -250 -208 -18 -38 -22 -66 -22 -142
0 -82 4 -103 27 -152 34 -73 103 -142 176 -176 49 -23 70 -27 152 -27 115 0
163 19 244 95 78 74 110 149 111 260 0 76 -3 92 -32 151 -60 121 -171 196
-300 204 -37 2 -85 0 -106 -5z"/>
<path d="M4125 1630 c-198 -31 -391 -129 -529 -269 l-59 -60 33 -38 c91 -106
232 -203 367 -252 292 -107 610 -69 863 102 58 39 180 157 180 173 0 24 -177
179 -254 223 -179 102 -416 149 -601 121z"/>
</g>
</svg>
